# xmcd
#
# Track frame offsets:
#	182
#	14490
#	25535
#	37270
#	48812
#	60487
#	71937
#	83287
#	96012
#	105362
#	118237
#	128620
#	138457
#	147397
#	157855
#	169262
#	181390
#
# Disc length: 2556 seconds
#
# Revision: 1
# Processed by: cddbd v1.5.1PL0 Copyright (c) Steve Scherf et al.
# Submitted via: audiograbber 1.82.02
#
DISCID=dd09fa11
DTITLE=George Jones - 16 Greatest Songs
DYEAR=1900
DGENRE=
TTITLE0=A Good year for the roses
TTITLE1=Tender years
TTITLE2=White Lightning
TTITLE3=I'll share my world with you
TTITLE4=I'm wasting good paper
TTITLE5=Old brush arbors
TTITLE6=Say its not you
TTITLE7=If my heart has windows
TTITLE8=The race is on
TTITLE9=When the grass grows over me
TTITLE10=Developing my pictures
TTITLE11=Back in babys arms again
TTITLE12=Love bug
TTITLE13=With half a heart
TTITLE14=I can't change overnight
TTITLE15=She thinks I still care
TTITLE16=Walk through the world with me
EXTD=
EXTT0=
EXTT1=
EXTT2=
EXTT3=
EXTT4=
EXTT5=
EXTT6=
EXTT7=
EXTT8=
EXTT9=
EXTT10=
EXTT11=
EXTT12=
EXTT13=
EXTT14=
EXTT15=
EXTT16=
PLAYORDER=
